<mxfile host="app.diagrams.net" agent="Mozilla/5.0 (Windows NT 10.0; Win64; x64) AppleWebKit/537.36 (KHTML, like Gecko) Chrome/129.0.0.0 Safari/537.36" version="24.7.16">
  <diagram id="C5RBs43oDa-KdzZeNtuy" name="Page-1">
    <mxGraphModel dx="1358" dy="647" grid="1" gridSize="10" guides="1" tooltips="1" connect="1" arrows="1" fold="1" page="1" pageScale="1" pageWidth="827" pageHeight="1169" math="0" shadow="0">
      <root>
        <mxCell id="WIyWlLk6GJQsqaUBKTNV-0" />
        <mxCell id="WIyWlLk6GJQsqaUBKTNV-1" parent="WIyWlLk6GJQsqaUBKTNV-0" />
        <mxCell id="Pgp6ELoSX-81kT8CM28I-0" value="거래 생성 (팀장)" style="rounded=1;whiteSpace=wrap;html=1;" vertex="1" parent="WIyWlLk6GJQsqaUBKTNV-1">
          <mxGeometry x="200" y="160" width="133.33" height="40" as="geometry" />
        </mxCell>
        <mxCell id="Pgp6ELoSX-81kT8CM28I-1" value="거래 참여 (팀원)" style="rounded=1;whiteSpace=wrap;html=1;" vertex="1" parent="WIyWlLk6GJQsqaUBKTNV-1">
          <mxGeometry x="360" y="320" width="133.33" height="40" as="geometry" />
        </mxCell>
        <mxCell id="Pgp6ELoSX-81kT8CM28I-8" style="edgeStyle=none;curved=1;rounded=0;orthogonalLoop=1;jettySize=auto;html=1;exitX=1;exitY=0.5;exitDx=0;exitDy=0;exitPerimeter=0;fontSize=12;startSize=8;endSize=8;" edge="1" parent="WIyWlLk6GJQsqaUBKTNV-1" source="Pgp6ELoSX-81kT8CM28I-2">
          <mxGeometry relative="1" as="geometry">
            <mxPoint x="630" y="180" as="targetPoint" />
          </mxGeometry>
        </mxCell>
        <mxCell id="Pgp6ELoSX-81kT8CM28I-2" value="&amp;lt;거래글&amp;gt;&lt;div&gt;&lt;div&gt;- 최대 참여인원&lt;/div&gt;&lt;div&gt;- 총 수량&lt;/div&gt;&lt;div&gt;- 가격&lt;/div&gt;&lt;div&gt;- 거래장소&lt;/div&gt;&lt;div&gt;- 채팅방&lt;/div&gt;&lt;/div&gt;" style="shape=cylinder3;whiteSpace=wrap;html=1;boundedLbl=1;backgroundOutline=1;size=5.629616066261491;" vertex="1" parent="WIyWlLk6GJQsqaUBKTNV-1">
          <mxGeometry x="440" y="115" width="100" height="130" as="geometry" />
        </mxCell>
        <mxCell id="Pgp6ELoSX-81kT8CM28I-4" style="edgeStyle=none;curved=1;rounded=0;orthogonalLoop=1;jettySize=auto;html=1;exitX=1;exitY=0.5;exitDx=0;exitDy=0;entryX=0;entryY=0.5;entryDx=0;entryDy=0;entryPerimeter=0;fontSize=12;startSize=8;endSize=8;" edge="1" parent="WIyWlLk6GJQsqaUBKTNV-1" source="Pgp6ELoSX-81kT8CM28I-0" target="Pgp6ELoSX-81kT8CM28I-2">
          <mxGeometry relative="1" as="geometry" />
        </mxCell>
        <mxCell id="Pgp6ELoSX-81kT8CM28I-5" style="edgeStyle=none;curved=1;rounded=0;orthogonalLoop=1;jettySize=auto;html=1;exitX=0.5;exitY=0;exitDx=0;exitDy=0;entryX=0.5;entryY=1;entryDx=0;entryDy=0;entryPerimeter=0;fontSize=12;startSize=8;endSize=8;" edge="1" parent="WIyWlLk6GJQsqaUBKTNV-1" source="Pgp6ELoSX-81kT8CM28I-1" target="Pgp6ELoSX-81kT8CM28I-2">
          <mxGeometry relative="1" as="geometry" />
        </mxCell>
        <mxCell id="Pgp6ELoSX-81kT8CM28I-10" value="채팅으로 합의&lt;div&gt;- 개인의 선택 수량&lt;/div&gt;&lt;div&gt;- 거래 장소&lt;/div&gt;" style="rounded=1;whiteSpace=wrap;html=1;" vertex="1" parent="WIyWlLk6GJQsqaUBKTNV-1">
          <mxGeometry x="630" y="155" width="133.33" height="50" as="geometry" />
        </mxCell>
        <mxCell id="Pgp6ELoSX-81kT8CM28I-15" style="edgeStyle=none;curved=1;rounded=0;orthogonalLoop=1;jettySize=auto;html=1;exitX=1;exitY=1;exitDx=0;exitDy=0;fontSize=12;startSize=8;endSize=8;" edge="1" parent="WIyWlLk6GJQsqaUBKTNV-1">
          <mxGeometry relative="1" as="geometry">
            <mxPoint x="721.6599999999999" y="405" as="sourcePoint" />
            <mxPoint x="721.6599999999999" y="405" as="targetPoint" />
          </mxGeometry>
        </mxCell>
      </root>
    </mxGraphModel>
  </diagram>
</mxfile>
